<?xml version="1.0" standalone="no"?><!DOCTYPE svg PUBLIC "-//W3C//DTD SVG 1.1//EN" "http://www.w3.org/Graphics/SVG/1.1/DTD/svg11.dtd"><svg t="1656489922913" class="icon" viewBox="0 0 1024 1024" version="1.1" xmlns="http://www.w3.org/2000/svg" p-id="3073" xmlns:xlink="http://www.w3.org/1999/xlink" width="16" height="16"><defs><style type="text/css"></style></defs><path d="M233.73913 589.913043c-20.034783 0-41.182609-8.904348-55.652173-23.373913-14.469565-14.469565-22.26087-34.504348-22.26087-54.53913 0-20.034783 8.904348-40.069565 22.26087-55.652174 14.469565-14.469565 34.504348-22.26087 55.652173-22.260869 20.034783 0 40.069565 8.904348 54.539131 22.260869 14.469565 14.469565 23.373913 34.504348 23.373913 55.652174 0 20.034783-8.904348 40.069565-23.373913 54.53913-14.469565 14.469565-34.504348 23.373913-54.539131 23.373913z m332.8-23.373913c14.469565-14.469565 23.373913-34.504348 23.373913-54.53913 0-20.034783-8.904348-40.069565-23.373913-55.652174-14.469565-14.469565-34.504348-22.26087-54.53913-22.260869-20.034783 0-41.182609 8.904348-55.652174 22.260869-14.469565 14.469565-22.26087 34.504348-22.260869 55.652174 0 20.034783 8.904348 40.069565 22.260869 54.53913 14.469565 14.469565 34.504348 23.373913 55.652174 23.373913 20.034783 0 40.069565-8.904348 54.53913-23.373913z m278.26087 0c14.469565-14.469565 23.373913-34.504348 23.373913-54.53913 0-20.034783-8.904348-40.069565-23.373913-55.652174-14.469565-14.469565-34.504348-22.26087-54.53913-22.260869-20.034783 0-41.182609 8.904348-55.652174 22.260869-14.469565 14.469565-22.26087 34.504348-22.26087 55.652174 0 20.034783 8.904348 40.069565 22.26087 54.53913 14.469565 14.469565 34.504348 23.373913 55.652174 23.373913 20.034783 0 40.069565-8.904348 54.53913-23.373913z" p-id="3074" fill="#8a8a8a"></path></svg>